# xmcd
#
# Track frame offsets:
#	150
#	16570
#	26083
#	40090
#	52530
#	65485
#	76690
#	90415
#	103885
#	115508
#	134598
#	145108
#	162015
#	174543
#	194850
#	208530
#	226733
#	253415
#	263978
#	279703
#	291463
#	303988
#
# Disc length: 4213
#
# Revision: 2
# Processed by: cddbd v1.5.1PL0 Copyright (c) Steve Scherf et al.
# Submitted via: ExactAudioCopy v0.95a3
# Normalized: r0:TSWAP
#
DISCID=31107316
DTITLE=Various Artist - 60's LOVE and PEACE Vol.1
DYEAR=1993
DGENRE=Oldies
TTITLE0=The Rigthteous Brothers - Unchained Melody
TTITLE1=The Beatles - Yesterday
TTITLE2=Simon and Garfunkel - The Sounds of Silence
TTITLE3=The Temptations - My Girl
TTITLE4=Percy Sledge - When A Man Loves A Woman
TTITLE5=The Drifters - Save the Last Dance for Me
TTITLE6=Elvis Presley - Can't Help Falling In Love
TTITLE7=Roy Orbison - Oh, Pretty Women
TTITLE8=Diana Ross and Supremes - Where Did Our Love Go
TTITLE9=Ray Charles - I Can't Stop Loving You
TTITLE10=The Beatles - Help!
TTITLE11=The Roling Stones - Satisfaction
TTITLE12=The Monkees - I'm A Believer
TTITLE13=The Animals - House of the Rising Sun
TTITLE14=Ben E. King - Stand By Me
TTITLE15=Procol Harum - A Whiter Shade of Pale
TTITLE16=Harry Belafonte - Danny Boy
TTITLE17=Louis Armstrong - What A Wonderful World
TTITLE18=Nat King Cole - Mona Lisa
TTITLE19=The Platters - Only You
TTITLE20=Andy Williams - Moon River
TTITLE21=Brende Lee - If You Love Me
EXTD=
EXTT0=
EXTT1=
EXTT2=
EXTT3=
EXTT4=
EXTT5=
EXTT6=
EXTT7=
EXTT8=
EXTT9=
EXTT10=
EXTT11=
EXTT12=
EXTT13=
EXTT14=
EXTT15=
EXTT16=
EXTT17=
EXTT18=
EXTT19=
EXTT20=
EXTT21=
PLAYORDER=
